<svg width="196" height="52" viewBox="0 0 196 52" fill="none" xmlns="http://www.w3.org/2000/svg">
<path d="M0.971591 6.54545V0.818181H23.7273V6.54545H15.8523V27H8.84659V6.54545H0.971591ZM29.3043 27.3068C28.0515 27.3068 26.9435 27.1023 25.9805 26.6932C25.0259 26.2756 24.2759 25.6449 23.7305 24.8011C23.185 23.9574 22.9123 22.8835 22.9123 21.5795C22.9123 20.5057 23.0955 19.5895 23.462 18.831C23.8285 18.0639 24.3398 17.4375 24.9961 16.9517C25.6523 16.4659 26.4151 16.0952 27.2844 15.8395C28.1623 15.5838 29.1083 15.4176 30.1225 15.3409C31.2219 15.2557 32.104 15.1534 32.7688 15.0341C33.4421 14.9062 33.9279 14.7315 34.2262 14.5099C34.5245 14.2798 34.6737 13.9773 34.6737 13.6023V13.5511C34.6737 13.0398 34.4776 12.6477 34.0856 12.375C33.6935 12.1023 33.1907 11.9659 32.5771 11.9659C31.9038 11.9659 31.354 12.1151 30.9279 12.4134C30.5103 12.7031 30.2589 13.1506 30.1737 13.7557H23.6793C23.7646 12.5625 24.1438 11.4631 24.8171 10.4574C25.4989 9.44318 26.4918 8.63352 27.7958 8.02841C29.0998 7.41477 30.7276 7.10795 32.6793 7.10795C34.0856 7.10795 35.3469 7.27415 36.4634 7.60653C37.5799 7.9304 38.5302 8.38636 39.3143 8.97443C40.0984 9.55398 40.695 10.2358 41.104 11.0199C41.5217 11.7955 41.7305 12.6392 41.7305 13.5511V27H35.1339V24.2386H34.9805C34.5884 24.9716 34.1112 25.5639 33.5487 26.0156C32.9947 26.4673 32.3597 26.7955 31.6438 27C30.9364 27.2045 30.1566 27.3068 29.3043 27.3068ZM31.6055 22.858C32.1424 22.858 32.6452 22.7472 33.114 22.5256C33.5913 22.304 33.979 21.9844 34.2773 21.5668C34.5756 21.1491 34.7248 20.642 34.7248 20.0455V18.4091C34.5373 18.4858 34.337 18.5582 34.1239 18.6264C33.9194 18.6946 33.6978 18.7585 33.4592 18.8182C33.229 18.8778 32.9819 18.9332 32.7177 18.9844C32.462 19.0355 32.1935 19.0824 31.9123 19.125C31.3668 19.2102 30.9194 19.3509 30.57 19.5469C30.229 19.7344 29.9734 19.9688 29.8029 20.25C29.641 20.5227 29.56 20.8295 29.56 21.1705C29.56 21.7159 29.7518 22.1335 30.1353 22.4233C30.5188 22.7131 31.0089 22.858 31.6055 22.858ZM51.1875 7.36364L54.0511 13.4489L57.0682 7.36364H64.0739L58.8068 17.1818L64.3295 27H57.375L54.0511 20.7614L50.8295 27H43.7727L49.3466 17.1818L44.1307 7.36364H51.1875ZM75.375 27.358C73.2443 27.358 71.4205 26.9361 69.9034 26.0923C68.3864 25.2401 67.223 24.0554 66.4134 22.5384C65.6037 21.0128 65.1989 19.2443 65.1989 17.233C65.1989 15.2216 65.6037 13.4574 66.4134 11.9403C67.223 10.4148 68.3864 9.23011 69.9034 8.38636C71.4205 7.53409 73.2443 7.10795 75.375 7.10795C77.5057 7.10795 79.3295 7.53409 80.8466 8.38636C82.3636 9.23011 83.527 10.4148 84.3366 11.9403C85.1463 13.4574 85.5511 15.2216 85.5511 17.233C85.5511 19.2443 85.1463 21.0128 84.3366 22.5384C83.527 24.0554 82.3636 25.2401 80.8466 26.0923C79.3295 26.9361 77.5057 27.358 75.375 27.358ZM75.4261 22.142C76.0227 22.142 76.5384 21.9418 76.973 21.5412C77.4077 21.1406 77.7443 20.5696 77.983 19.8281C78.2216 19.0866 78.3409 18.2045 78.3409 17.1818C78.3409 16.1506 78.2216 15.2685 77.983 14.5355C77.7443 13.794 77.4077 13.223 76.973 12.8224C76.5384 12.4219 76.0227 12.2216 75.4261 12.2216C74.7955 12.2216 74.2543 12.4219 73.8026 12.8224C73.3509 13.223 73.0057 13.794 72.767 14.5355C72.5284 15.2685 72.4091 16.1506 72.4091 17.1818C72.4091 18.2045 72.5284 19.0866 72.767 19.8281C73.0057 20.5696 73.3509 21.1406 73.8026 21.5412C74.2543 21.9418 74.7955 22.142 75.4261 22.142Z" fill="#459EF0"/>
<path d="M95.4716 15.9545V27H88.4148V7.36364H95.1136V11.0966H95.3182C95.7443 9.85227 96.4943 8.87642 97.5682 8.16903C98.6506 7.46165 99.9119 7.10795 101.352 7.10795C102.741 7.10795 103.947 7.42756 104.97 8.06676C106.001 8.69744 106.798 9.56676 107.361 10.6747C107.932 11.7827 108.213 13.0483 108.205 14.4716V27H101.148V15.9545C101.156 14.983 100.909 14.2202 100.406 13.6662C99.9119 13.1122 99.2216 12.8352 98.3352 12.8352C97.7557 12.8352 97.2486 12.9631 96.8139 13.2188C96.3878 13.4659 96.0597 13.8239 95.8295 14.2926C95.5994 14.7528 95.4801 15.3068 95.4716 15.9545ZM121.097 27.358C119.001 27.358 117.194 26.9574 115.677 26.1562C114.168 25.3466 113.005 24.1875 112.187 22.679C111.377 21.1619 110.972 19.3466 110.972 17.233C110.972 15.2045 111.381 13.4318 112.2 11.9148C113.018 10.3977 114.173 9.21733 115.664 8.37358C117.156 7.52983 118.915 7.10795 120.944 7.10795C122.427 7.10795 123.769 7.33807 124.971 7.7983C126.173 8.25852 127.2 8.92756 128.052 9.8054C128.904 10.6747 129.56 11.7315 130.021 12.9759C130.481 14.2202 130.711 15.6222 130.711 17.1818V18.8182H113.171V14.9318H124.217C124.208 14.3693 124.063 13.875 123.782 13.4489C123.509 13.0142 123.138 12.6776 122.67 12.4389C122.21 12.1918 121.685 12.0682 121.097 12.0682C120.526 12.0682 120.002 12.1918 119.525 12.4389C119.048 12.6776 118.664 13.0099 118.374 13.4361C118.093 13.8622 117.944 14.3608 117.927 14.9318V19.125C117.927 19.7557 118.059 20.3182 118.323 20.8125C118.587 21.3068 118.967 21.6946 119.461 21.9759C119.955 22.2571 120.552 22.3977 121.251 22.3977C121.737 22.3977 122.18 22.3295 122.58 22.1932C122.989 22.0568 123.339 21.8608 123.629 21.6051C123.918 21.3409 124.131 21.0256 124.268 20.6591H130.711C130.489 22.0227 129.965 23.2074 129.138 24.2131C128.312 25.2102 127.217 25.9858 125.853 26.5398C124.498 27.0852 122.913 27.358 121.097 27.358ZM139.062 27.3068C137.809 27.3068 136.701 27.1023 135.738 26.6932C134.784 26.2756 134.034 25.6449 133.488 24.8011C132.943 23.9574 132.67 22.8835 132.67 21.5795C132.67 20.5057 132.853 19.5895 133.22 18.831C133.586 18.0639 134.098 17.4375 134.754 16.9517C135.41 16.4659 136.173 16.0952 137.042 15.8395C137.92 15.5838 138.866 15.4176 139.88 15.3409C140.98 15.2557 141.862 15.1534 142.527 15.0341C143.2 14.9062 143.686 14.7315 143.984 14.5099C144.282 14.2798 144.431 13.9773 144.431 13.6023V13.5511C144.431 13.0398 144.235 12.6477 143.843 12.375C143.451 12.1023 142.949 11.9659 142.335 11.9659C141.662 11.9659 141.112 12.1151 140.686 12.4134C140.268 12.7031 140.017 13.1506 139.931 13.7557H133.437C133.522 12.5625 133.902 11.4631 134.575 10.4574C135.257 9.44318 136.25 8.63352 137.554 8.02841C138.858 7.41477 140.485 7.10795 142.437 7.10795C143.843 7.10795 145.105 7.27415 146.221 7.60653C147.338 7.9304 148.288 8.38636 149.072 8.97443C149.856 9.55398 150.453 10.2358 150.862 11.0199C151.279 11.7955 151.488 12.6392 151.488 13.5511V27H144.892V24.2386H144.738C144.346 24.9716 143.869 25.5639 143.306 26.0156C142.752 26.4673 142.118 26.7955 141.402 27C140.694 27.2045 139.914 27.3068 139.062 27.3068ZM141.363 22.858C141.9 22.858 142.403 22.7472 142.872 22.5256C143.349 22.304 143.737 21.9844 144.035 21.5668C144.333 21.1491 144.483 20.642 144.483 20.0455V18.4091C144.295 18.4858 144.095 18.5582 143.882 18.6264C143.677 18.6946 143.456 18.7585 143.217 18.8182C142.987 18.8778 142.74 18.9332 142.475 18.9844C142.22 19.0355 141.951 19.0824 141.67 19.125C141.125 19.2102 140.677 19.3509 140.328 19.5469C139.987 19.7344 139.731 19.9688 139.561 20.25C139.399 20.5227 139.318 20.8295 139.318 21.1705C139.318 21.7159 139.51 22.1335 139.893 22.4233C140.277 22.7131 140.767 22.858 141.363 22.858ZM164.32 27.358C162.19 27.358 160.366 26.9361 158.849 26.0923C157.332 25.2401 156.168 24.0554 155.359 22.5384C154.549 21.0128 154.144 19.2443 154.144 17.233C154.144 15.2216 154.549 13.4574 155.359 11.9403C156.168 10.4148 157.332 9.23011 158.849 8.38636C160.366 7.53409 162.19 7.10795 164.32 7.10795C166.246 7.10795 167.913 7.45739 169.319 8.15625C170.734 8.84659 171.829 9.8267 172.604 11.0966C173.38 12.358 173.772 13.8409 173.781 15.5455H167.235C167.141 14.5142 166.843 13.7301 166.34 13.1932C165.846 12.6477 165.207 12.375 164.423 12.375C163.809 12.375 163.272 12.554 162.812 12.9119C162.352 13.2614 161.994 13.794 161.738 14.5099C161.482 15.2173 161.354 16.108 161.354 17.1818C161.354 18.2557 161.482 19.1506 161.738 19.8665C161.994 20.5739 162.352 21.1065 162.812 21.4645C163.272 21.8139 163.809 21.9886 164.423 21.9886C164.942 21.9886 165.403 21.8693 165.803 21.6307C166.204 21.3835 166.528 21.0256 166.775 20.5568C167.031 20.0795 167.184 19.5 167.235 18.8182H173.781C173.755 20.5483 173.359 22.0568 172.592 23.3438C171.825 24.6222 170.738 25.6108 169.332 26.3097C167.934 27.0085 166.263 27.358 164.32 27.358ZM186.152 27.358C184.022 27.358 182.198 26.9361 180.681 26.0923C179.164 25.2401 178 24.0554 177.191 22.5384C176.381 21.0128 175.976 19.2443 175.976 17.233C175.976 15.2216 176.381 13.4574 177.191 11.9403C178 10.4148 179.164 9.23011 180.681 8.38636C182.198 7.53409 184.022 7.10795 186.152 7.10795C188.078 7.10795 189.745 7.45739 191.151 8.15625C192.566 8.84659 193.661 9.8267 194.436 11.0966C195.212 12.358 195.604 13.8409 195.613 15.5455H189.067C188.973 14.5142 188.675 13.7301 188.172 13.1932C187.678 12.6477 187.039 12.375 186.255 12.375C185.641 12.375 185.104 12.554 184.644 12.9119C184.184 13.2614 183.826 13.794 183.57 14.5099C183.314 15.2173 183.186 16.108 183.186 17.1818C183.186 18.2557 183.314 19.1506 183.57 19.8665C183.826 20.5739 184.184 21.1065 184.644 21.4645C185.104 21.8139 185.641 21.9886 186.255 21.9886C186.775 21.9886 187.235 21.8693 187.635 21.6307C188.036 21.3835 188.36 21.0256 188.607 20.5568C188.863 20.0795 189.016 19.5 189.067 18.8182H195.613C195.587 20.5483 195.191 22.0568 194.424 23.3438C193.657 24.6222 192.57 25.6108 191.164 26.3097C189.766 27.0085 188.096 27.358 186.152 27.358ZM52.8409 41H51.0795C50.9754 40.4934 50.7931 40.0483 50.5327 39.6648C50.277 39.2812 49.9645 38.9593 49.5952 38.6989C49.2306 38.4337 48.8258 38.2348 48.3807 38.1023C47.9356 37.9697 47.4716 37.9034 46.9886 37.9034C46.108 37.9034 45.3101 38.1259 44.5952 38.571C43.8849 39.0161 43.3191 39.6719 42.8977 40.5384C42.4811 41.4048 42.2727 42.4678 42.2727 43.7273C42.2727 44.9867 42.4811 46.0497 42.8977 46.9162C43.3191 47.7827 43.8849 48.4384 44.5952 48.8835C45.3101 49.3286 46.108 49.5511 46.9886 49.5511C47.4716 49.5511 47.9356 49.4848 48.3807 49.3523C48.8258 49.2197 49.2306 49.0232 49.5952 48.7628C49.9645 48.4976 50.277 48.1733 50.5327 47.7898C50.7931 47.4015 50.9754 46.9564 51.0795 46.4545H52.8409C52.7083 47.1979 52.4669 47.8632 52.1165 48.4503C51.7661 49.0374 51.3305 49.5369 50.8097 49.9489C50.2888 50.3561 49.7041 50.6662 49.0554 50.8793C48.4115 51.0923 47.7225 51.1989 46.9886 51.1989C45.7481 51.1989 44.6449 50.8958 43.679 50.2898C42.7131 49.6837 41.9531 48.822 41.3991 47.7045C40.8452 46.5871 40.5682 45.2614 40.5682 43.7273C40.5682 42.1932 40.8452 40.8674 41.3991 39.75C41.9531 38.6326 42.7131 37.7708 43.679 37.1648C44.6449 36.5587 45.7481 36.2557 46.9886 36.2557C47.7225 36.2557 48.4115 36.3622 49.0554 36.5753C49.7041 36.7884 50.2888 37.1009 50.8097 37.5128C51.3305 37.92 51.7661 38.4171 52.1165 39.0043C52.4669 39.5866 52.7083 40.2519 52.8409 41ZM67.9599 43.7273C67.9599 45.2614 67.6829 46.5871 67.1289 47.7045C66.5749 48.822 65.815 49.6837 64.8491 50.2898C63.8832 50.8958 62.7799 51.1989 61.5394 51.1989C60.2989 51.1989 59.1957 50.8958 58.2298 50.2898C57.2638 49.6837 56.5039 48.822 55.9499 47.7045C55.396 46.5871 55.119 45.2614 55.119 43.7273C55.119 42.1932 55.396 40.8674 55.9499 39.75C56.5039 38.6326 57.2638 37.7708 58.2298 37.1648C59.1957 36.5587 60.2989 36.2557 61.5394 36.2557C62.7799 36.2557 63.8832 36.5587 64.8491 37.1648C65.815 37.7708 66.5749 38.6326 67.1289 39.75C67.6829 40.8674 67.9599 42.1932 67.9599 43.7273ZM66.2553 43.7273C66.2553 42.4678 66.0446 41.4048 65.6232 40.5384C65.2066 39.6719 64.6407 39.0161 63.9258 38.571C63.2156 38.1259 62.4201 37.9034 61.5394 37.9034C60.6587 37.9034 59.8609 38.1259 59.146 38.571C58.4357 39.0161 57.8699 39.6719 57.4485 40.5384C57.0318 41.4048 56.8235 42.4678 56.8235 43.7273C56.8235 44.9867 57.0318 46.0497 57.4485 46.9162C57.8699 47.7827 58.4357 48.4384 59.146 48.8835C59.8609 49.3286 60.6587 49.5511 61.5394 49.5511C62.4201 49.5511 63.2156 49.3286 63.9258 48.8835C64.6407 48.4384 65.2066 47.7827 65.6232 46.9162C66.0446 46.0497 66.2553 44.9867 66.2553 43.7273ZM82.4556 36.4545V51H80.7511L72.8249 39.5795H72.6829V51H70.9215V36.4545H72.6261L80.5806 47.9034H80.7227V36.4545H82.4556ZM93.9347 40.0909C93.8494 39.3712 93.5038 38.8125 92.8977 38.4148C92.2917 38.017 91.5483 37.8182 90.6676 37.8182C90.0237 37.8182 89.4602 37.9223 88.9773 38.1307C88.4991 38.339 88.125 38.6255 87.8551 38.9901C87.59 39.3546 87.4574 39.7689 87.4574 40.233C87.4574 40.6212 87.5497 40.955 87.7344 41.2344C87.9238 41.509 88.1652 41.7386 88.4588 41.9233C88.7524 42.1032 89.0601 42.2524 89.3821 42.3707C89.7041 42.4844 90 42.5767 90.2699 42.6477L91.7472 43.0455C92.1259 43.1449 92.5473 43.2822 93.0114 43.4574C93.4801 43.6326 93.9276 43.8717 94.3537 44.1747C94.7846 44.473 95.1397 44.8565 95.419 45.3253C95.6984 45.794 95.8381 46.3693 95.8381 47.0511C95.8381 47.8371 95.6321 48.5473 95.2202 49.1818C94.813 49.8163 94.2164 50.3205 93.4304 50.6946C92.6491 51.0687 91.6998 51.2557 90.5824 51.2557C89.5407 51.2557 88.6387 51.0876 87.8764 50.7514C87.1188 50.4152 86.5223 49.9465 86.0866 49.3452C85.6558 48.7438 85.4119 48.0455 85.3551 47.25H87.1733C87.2206 47.7992 87.4053 48.2538 87.7273 48.6136C88.054 48.9687 88.4659 49.2339 88.9631 49.4091C89.465 49.5795 90.0047 49.6648 90.5824 49.6648C91.2547 49.6648 91.8584 49.5559 92.3935 49.3381C92.9285 49.1155 93.3523 48.8078 93.6648 48.4148C93.9773 48.017 94.1335 47.553 94.1335 47.0227C94.1335 46.5398 93.9986 46.1468 93.7287 45.8438C93.4588 45.5407 93.1037 45.2945 92.6634 45.1051C92.223 44.9157 91.7472 44.75 91.2358 44.608L89.446 44.0966C88.3097 43.7699 87.41 43.3035 86.7472 42.6974C86.0843 42.0914 85.7528 41.2983 85.7528 40.3182C85.7528 39.5038 85.973 38.7936 86.4134 38.1875C86.8584 37.5767 87.455 37.1032 88.2031 36.767C88.956 36.4261 89.7964 36.2557 90.7244 36.2557C91.6619 36.2557 92.4953 36.4238 93.2244 36.7599C93.9536 37.0914 94.5313 37.5459 94.9574 38.1236C95.3883 38.7012 95.6155 39.357 95.6392 40.0909H93.9347ZM108.279 36.4545H110.041V46.0852C110.041 47.0795 109.806 47.9673 109.338 48.7486C108.874 49.5251 108.218 50.1383 107.37 50.5881C106.523 51.0331 105.529 51.2557 104.387 51.2557C103.246 51.2557 102.252 51.0331 101.404 50.5881C100.557 50.1383 99.8988 49.5251 99.43 48.7486C98.966 47.9673 98.734 47.0795 98.734 46.0852V36.4545H100.495V45.9432C100.495 46.6534 100.652 47.2855 100.964 47.8395C101.277 48.3887 101.722 48.822 102.299 49.1392C102.882 49.4517 103.578 49.608 104.387 49.608C105.197 49.608 105.893 49.4517 106.475 49.1392C107.058 48.822 107.503 48.3887 107.811 47.8395C108.123 47.2855 108.279 46.6534 108.279 45.9432V36.4545ZM113.558 51V36.4545H115.32V49.4375H122.081V51H113.558ZM122.079 38.017V36.4545H132.988V38.017H128.414V51H126.653V38.017H122.079ZM137.468 36.4545V51H135.707V36.4545H137.468ZM152.534 36.4545V51H150.829L142.903 39.5795H142.761V51H141V36.4545H142.704L150.659 47.9034H150.801V36.4545H152.534ZM166.001 41C165.845 40.5218 165.639 40.0933 165.384 39.7145C165.133 39.331 164.832 39.0043 164.482 38.7344C164.136 38.4645 163.743 38.2585 163.303 38.1165C162.862 37.9744 162.379 37.9034 161.854 37.9034C160.992 37.9034 160.208 38.1259 159.503 38.571C158.797 39.0161 158.236 39.6719 157.82 40.5384C157.403 41.4048 157.195 42.4678 157.195 43.7273C157.195 44.9867 157.405 46.0497 157.827 46.9162C158.248 47.7827 158.819 48.4384 159.538 48.8835C160.258 49.3286 161.068 49.5511 161.967 49.5511C162.801 49.5511 163.535 49.3736 164.169 49.0185C164.808 48.6586 165.305 48.152 165.661 47.4986C166.02 46.8404 166.2 46.0663 166.2 45.1761L166.74 45.2898H162.365V43.7273H167.905V45.2898C167.905 46.4877 167.649 47.5294 167.138 48.4148C166.631 49.3002 165.93 49.9867 165.036 50.4744C164.145 50.9574 163.123 51.1989 161.967 51.1989C160.679 51.1989 159.548 50.8958 158.572 50.2898C157.602 49.6837 156.844 48.822 156.3 47.7045C155.76 46.5871 155.49 45.2614 155.49 43.7273C155.49 42.5767 155.644 41.5421 155.952 40.6236C156.264 39.7003 156.705 38.9143 157.273 38.2656C157.841 37.617 158.513 37.1198 159.29 36.7741C160.066 36.4285 160.921 36.2557 161.854 36.2557C162.621 36.2557 163.336 36.3717 163.999 36.6037C164.666 36.831 165.26 37.1553 165.781 37.5767C166.307 37.9934 166.745 38.4929 167.095 39.0753C167.446 39.6529 167.687 40.2945 167.82 41H166.001Z" fill="#7C7070"/>
</svg>
